<svg height="496pt" viewBox="0 -40 496 496" width="496pt" xmlns="http://www.w3.org/2000/svg" xmlns:xlink="http://www.w3.org/1999/xlink"><linearGradient id="a" gradientUnits="userSpaceOnUse" x1="248" x2="248" y1="416" y2="0"><stop offset="0" stop-color="#9f2fff"/><stop offset="1" stop-color="#0bb1d3"/></linearGradient><path d="m360 336c-13.230469 0-24 10.769531-24 24s10.769531 24 24 24 24-10.769531 24-24-10.769531-24-24-24zm0 32c-4.40625 0-8-3.585938-8-8s3.59375-8 8-8 8 3.585938 8 8-3.59375 8-8 8zm-224-32c-13.230469 0-24 10.769531-24 24s10.769531 24 24 24 24-10.769531 24-24-10.769531-24-24-24zm0 32c-4.40625 0-8-3.585938-8-8s3.59375-8 8-8 8 3.585938 8 8-3.59375 8-8 8zm333.558594-91.375-106.238282-18.753906c-4.871093-.855469-9.304687-3.167969-12.800781-6.664063l-39.496093-39.496093c-7.550782-7.542969-17.597657-11.710938-28.28125-11.710938h-170.742188c-7.015625 0-13.664062 3.054688-18.222656 8.382812l-35.371094 41.265626-12.820312-25.648438h-45.585938v16h35.695312l8 16h-11.695312c-17.648438 0-32 14.351562-32 32v64c0 17.648438 14.351562 32 32 32h53.480469c2.855469 5.992188 6.710937 11.40625 11.398437 16h-96.878906v16h496v-16h-96.886719c4.695313-4.59375 8.542969-10.007812 11.398438-16h61.488281c13.230469 0 24-10.769531 24-24v-51.863281c0-15.5625-11.121094-28.808594-26.441406-31.511719zm9.839844 27.375h-18.285157c-5.042969 0-9.570312-2.800781-11.824219-7.304688l-4.066406-8.121093 21.554688 3.800781c6.253906 1.105469 11.046875 5.738281 12.621094 11.625zm-373.46875-85.207031c1.519531-1.777344 3.734374-2.792969 6.070312-2.792969h170.742188c6.320312 0 12.496093 2.558594 16.96875 7.03125l39.496093 39.496094c5.832031 5.832031 13.21875 9.671875 21.335938 11.105468l65.066406 11.480469 9.367187 18.742188c4.984376 9.960937 15 16.144531 26.136719 16.144531h18.886719v16h-69.480469c-9.007812-18.886719-28.238281-32-50.519531-32-15.664062 0-29.824219 6.480469-40 16.886719v-12.199219l-16-16v-36.6875h-18.230469l-8-24h-153.609375l-2.398437 3c-21.769531 27.199219-33.761719 61.382812-33.761719 96.222656v.082032c-.910156 1.519531-1.753906 3.085937-2.519531 4.695312h-69.480469v-32h28.945312l16.871094-33.753906zm198.710937 149.207031h-113.28125c.375-2.625.640625-5.28125.640625-8s-.265625-5.375-.640625-8h113.28125c-.375 2.625-.640625 5.28125-.640625 8s.265625 5.375.640625 8zm-16.640625-96v16h-24c-4.40625 0-8-3.585938-8-8s3.59375-8 8-8zm-24-16c-10.414062 0-19.214844 6.710938-22.527344 16h-123.96875c4-8.425781 8.753906-16.511719 14.417969-24h134.316406l2.664063 8zm-153 32h130.472656c3.3125 9.289062 12.113282 16 22.527344 16h28.6875l11.3125 11.3125v20.6875h-117.480469c-9.007812-18.886719-28.238281-32-50.519531-32-11.335938 0-21.871094 3.40625-30.703125 9.222656 1.144531-8.574218 3-17.03125 5.703125-25.222656zm-79-16h11.054688l-8 16h-19.054688c0-8.824219 7.175781-16 16-16zm0 96c-8.824219 0-16-7.175781-16-16h64.640625c-.375 2.625-.640625 5.28125-.640625 8s.265625 5.375.640625 8zm64-8c0-22.054688 17.945312-40 40-40s40 17.945312 40 40-17.945312 40-40 40-40-17.945312-40-40zm79.113281 40c4.695313-4.59375 8.542969-10.007812 11.398438-16h122.960937c2.855469 5.992188 6.710938 11.40625 11.398438 16zm184.886719 0c-22.054688 0-40-17.945312-40-40s17.945312-40 40-40 40 17.945312 40 40-17.945312 40-40 40zm112-32h-56.640625c.375-2.625.640625-5.28125.640625-8s-.265625-5.375-.640625-8h64.640625v8c0 4.414062-3.59375 8-8 8zm-456-184h-16v-16h16zm16-16h128v16h-128zm16-32v16h-16v-16zm16 0h128v16h-128zm16-32v16h-16v-16zm144 16h-128v-16h128zm168-120c-57.34375 0-104 46.65625-104 104s46.65625 104 104 104 104-46.65625 104-104-46.65625-104-104-104zm-50.695312 32.191406 11.765624 20.382813 13.859376-8-11.769532-20.390625c8.917969-4.128906 18.617188-6.847656 28.839844-7.777344v23.59375h16v-23.59375c10.222656.929688 19.921875 3.648438 28.839844 7.785156l-11.769532 20.394532 13.859376 8 11.765624-20.386719c8.175782 5.792969 15.320313 12.929687 21.113282 21.113281l-20.382813 11.765625 8 13.859375 20.382813-11.769531c4.136718 8.921875 6.855468 18.617187 7.785156 28.839843h-23.59375v16h23.59375c-1.417969 15.617188-6.929688 30.046876-15.457031 42.25-8.394531-10.410156-24.769531-25.90625-50.632813-31.808593 1.550782-3.175781 2.496094-6.6875 2.496094-10.449219v-4.222656c0-3.707032-.871094-7.417969-2.527344-10.730469l-21.472656-42.933594-21.472656 42.933594c-1.65625 3.3125-2.527344 7.023437-2.527344 10.730469v4.222656c0 3.761719.945312 7.273438 2.496094 10.441406-25.863282 5.902344-42.238282 21.398438-50.632813 31.804688-8.527343-12.199219-14.039062-26.628906-15.457031-42.246094h23.59375v-16h-23.59375c.929688-10.222656 3.648438-19.921875 7.785156-28.839844l20.382813 11.769532 8-13.859376-20.382813-11.765624c5.792969-8.175782 12.9375-15.320313 21.113282-21.113282zm42.695312 79.808594v-4.222656c0-1.234375.296875-2.472656.839844-3.570313l7.160156-14.320312 7.160156 14.3125c.542969 1.105469.839844 2.335937.839844 3.578125v4.222656c0 4.414062-3.59375 8-8 8s-8-3.585938-8-8zm-53.601562 54.734375c7.265624-9.894531 26.699218-30.734375 61.601562-30.734375 34.921875 0 54.34375 20.847656 61.609375 30.734375-15.890625 15.601563-37.632813 25.265625-61.609375 25.265625s-45.710938-9.664062-61.601562-25.265625zm0 0" fill="url(#a)"/></svg>